<svg xmlns="http://www.w3.org/2000/svg" xmlns:svg="http://www.w3.org/2000/svg" id="Layer_1" width="74" height="24" x="0" y="0" version="1.1" viewBox="0 0 74 24" xml:space="preserve"><g id="g10" transform="matrix(0.23333333,0,0,0.23333333,2.195946,5.0675676)"><path id="path1" d="m 198.5,21.2 h -2.8 c -8.9,0 -14.6,5.7 -14.6,14.4 0,8.8 5.7,14.4 14.6,14.4 h 2.8 c 8.9,0 14.6,-5.7 14.6,-14.4 0,-8.8 -5.8,-14.4 -14.6,-14.4 z m 8.5,14.4 c 0,5.5 -3.3,8.7 -8.9,8.7 H 196 c -5.5,0 -8.8,-3.3 -8.8,-8.7 0,-5.5 3.3,-8.7 8.8,-8.7 h 2.2 c 5.5,0 8.8,3.2 8.8,8.7 z"/><path id="path2" d="m 260.6,21.2 c -1.9,0 -3,1.2 -3,3 V 47 c 0,1.9 1.2,3 3,3 1.8,0 3,-1.2 3,-3 V 24.2 c 0.1,-1.8 -1.1,-3 -3,-3 z"/><path id="path3" d="m 108.3,26 c 1,-1.5 0.7,-3.1 -0.8,-4.2 -1.6,-1.1 -3.2,-0.8 -4.2,0.8 l -13,19 -13,-19 c -1,-1.5 -2.7,-1.8 -4.2,-0.8 -1.6,1.1 -1.9,2.7 -0.8,4.2 0,0 15.4,22.7 15.7,22.9 0.6,0.8 1.4,1.2 2.3,1.1 0.9,0 1.7,-0.4 2.3,-1.2 C 92.9,48.6 108.3,26 108.3,26 Z"/><path id="path4" d="m 291.3,32.7 h -10.7 c -2.6,0 -3,-1.8 -3,-2.9 0,-1.3 0.5,-2.9 3,-2.9 h 15.6 c 1.7,0 2.9,-1.1 2.9,-2.9 0,-1.7 -1.1,-2.9 -2.9,-2.9 h -16 c -5.3,0 -8.7,3.4 -8.7,8.6 0,5.2 3.4,8.6 8.7,8.6 H 291 c 2.6,0 3,1.8 3,2.9 0,1.3 -0.5,2.9 -3,2.9 h -16.5 c -1.7,0 -2.9,1.1 -2.9,2.9 0,1.7 1.1,2.9 2.9,2.9 h 16.8 c 5.3,0 8.7,-3.4 8.7,-8.6 0,-5.2 -3.4,-8.6 -8.7,-8.6 z"/><path id="path5" d="M 146.1,24.2 V 47 c 0,1.9 1.2,3 3,3 1.8,0 3,-1.2 3,-3 v -6.9 h 11.8 l 5.9,8.7 c 0.5,0.8 1.3,1.2 2.1,1.2 0.1,0 0.2,0 0.3,0 1.6,-0.2 2.5,-1.5 2.3,-3.1 0,-0.4 -0.2,-0.8 -0.5,-1.2 l -4.3,-6.2 c 3,-1.3 4.8,-4.3 4.8,-8.2 0,-0.1 0,-0.3 0,-0.4 0,-0.1 0,-0.1 0,-0.1 0,-0.1 0,-0.1 0,-0.2 0,-0.1 0,-0.3 0,-0.4 0,-5.4 -3.3,-8.9 -8.3,-8.9 h -17.1 c -1.9,-0.1 -3,1 -3,2.9 z m 6,2.7 h 13.3 c 3,0 3.4,2.6 3.4,3.7 0,1 -0.3,3.4 -2.9,3.7 h -13.8 z"/><path id="path6" d="m 140.2,45.2 c 0,0 -15.4,-22.7 -15.7,-22.9 -0.6,-0.8 -1.4,-1.2 -2.3,-1.1 -0.9,0 -1.7,0.4 -2.3,1.2 -0.2,0.2 -15.6,22.9 -15.6,22.9 -1,1.5 -0.7,3.1 0.8,4.2 1.5,1.1 3.2,0.8 4.2,-0.8 L 112.5,44 H 132 l 3.2,4.7 c 1,1.5 2.7,1.8 4.2,0.8 1.5,-1.2 1.9,-2.8 0.8,-4.3 z m -24.3,-6.3 6.3,-9.2 6.3,9.2 z"/><path id="path7" d="m 247.1,50 c -1.9,0 -3,-1.1 -3,-3 V 35.3 c 0,-6.3 -4.4,-8.5 -8.6,-8.5 h -2.2 c -4.2,0 -8.6,2.2 -8.6,8.5 V 47 c 0,1.9 -1.1,3 -3,3 -1.9,0 -3,-1.1 -3,-3 V 35.3 c 0,-8.6 5.6,-14.2 14.3,-14.2 h 2.8 c 8.7,0 14.3,5.6 14.3,14.2 V 47 c 0,1.9 -1.1,3 -3,3 z"/><g id="g9"><polygon id="polygon7" points="35 35 11.1 0 0 0 29.5 43.2"/><path id="path8" d="m 37.4,38.6 -5.6,8.2 0.8,1.1 c 1.6,2.3 4,2.8 6.4,1.2 2.3,-1.6 2.8,-4.1 1.2,-6.3 z"/><polygon id="polygon8" points="45.6 19.4 32.4 0 21.3 0 40.1 27.5"/><path id="path9" d="M 61.5,42.7 48,22.9 42.4,31.1 53.8,47.9 c 1.6,2.3 4,2.8 6.4,1.2 2.4,-1.6 2.9,-4.1 1.3,-6.4 z"/></g></g></svg>